<svg width="0" height="0" class="hidden">
  <symbol version="1.1" id="icon_double-arrow" xmlns="http://www.w3.org/2000/svg" xmlns:xlink="http://www.w3.org/1999/xlink" x="0px" y="0px" enable-background="new 0 0 384 384" xml:space="preserve" viewBox="0 0 384 384">
    <path d="M315.5,192.2c-4.7-4.5-8.7-8.4-12.7-12.4C260.6,137.5,218.3,95.3,176.2,53c-2.1-2.2-3.9-5.3-4.5-8.3c-1-4.8,1.6-9,5.8-11.1
	c4.5-2.2,8.7-1.7,12.6,1.3c1,0.8,1.8,1.7,2.7,2.6c47.8,47.8,95.6,95.6,143.5,143.4c7.3,7.3,7.3,14.8,0,22.2
	c-47.9,47.9-95.8,95.8-143.7,143.7c-3.6,3.6-7.4,6-12.6,4.5c-7.9-2.2-11.1-11.4-6.1-17.9c0.9-1.2,2-2.2,3.1-3.3
	c45.1-45.1,90.1-90.1,135.2-135.2C313,194.1,314.1,193.4,315.5,192.2z M182.8,195.1c-45.1,45.1-90.2,90.1-135.2,135.2
	c-1,1-2,1.9-2.8,3c-5.2,6.7-1.9,16.1,6.3,18.1c5.1,1.3,8.8-1.1,12.3-4.6c48-48,95.9-96.1,144.1-143.9c6-6,6.1-16-0.1-22.1
	c-48-47.6-95.7-95.5-143.6-143.3c-1.1-1.1-2.3-2.4-3.6-3.3c-3.8-2.6-7.9-2.9-12-0.6c-4.1,2.3-6.4,6-5.6,10.5
	c0.6,3.1,2.3,6.4,4.5,8.6c42.1,42.4,84.4,84.6,126.7,126.8c4,4,8,7.9,12.8,12.6C185,193.4,183.8,194.2,182.8,195.1z"></path>
  </symbol>
  <symbol version="1.1" id="icon_edit" xmlns="http://www.w3.org/2000/svg" xmlns:xlink="http://www.w3.org/1999/xlink" x="0px" y="0px" enable-background="new 0 0 400.7 400.7" xml:space="preserve" viewBox="0 0 400.7 400.7">
    <path d="M0.4,84.2C2.5,78,3.8,71.3,7,65.7c9.5-16.7,24.3-25.3,43.6-25.4c28.9-0.2,57.8-0.1,86.7,0c6.7,0,11.2,4.1,11.3,9.8
	c0.1,5.8-4.7,10-11.5,10c-28.4,0-56.8,0-85.1,0c-15.5,0-26.7,8.4-30.6,22.8c-0.8,3-1,6.2-1,9.3c-0.1,85-0.1,170,0,255
	c0,15.9,8,27.1,22.2,31c3.2,0.9,6.7,1.2,10,1.2c91.6,0.1,183.3,0.1,274.9,0c19.5,0,32.1-12.8,32.2-32.4c0-28.2,0-56.5,0-84.7
	c0-5.7,3-9.9,7.6-10.9c6.1-1.4,11.9,3,12.1,9.4c0.2,7.9,0.1,15.9,0.1,23.8c0,22.5,0.3,45-0.2,67.5c-0.5,24.9-21.7,45.8-46.6,46.9
	c-1.8,0.1-3.6,0.1-5.5,0.1c-91.5,0-183,0-274.5,0c-20,0-35.6-8-45.6-25.4c-3.2-5.6-4.5-12.3-6.6-18.6C0.4,264.9,0.4,174.6,0.4,84.2z
	 M310.2,16.4c-53.7,53.8-107.2,107.8-161.4,161.1c-11.2,11.1-19,22.8-22.5,38.3c-4.9,21.6-11.6,42.9-17.5,64.3
	c-1.5,5.4,0.3,9.7,4.4,12.1c3.4,1.9,6.7,1.2,10.2,0.3c25.9-7.2,51.8-14.5,77.8-21.5c4.4-1.2,8-3.3,11.2-6.5
	C269.8,207,327.3,149.6,384.7,92.1c1.1-1.1,2.2-2.2,3.3-3.4c16.9-18.5,16.5-44.6-0.9-62.7c-4.3-4.5-8.7-9-13.3-13.2
	C365.2,5.2,355.1,1.6,344,1.4C330.4,1.6,319.5,7,310.2,16.4z M347.5,100c-48.1,48.1-96.3,96.3-144.2,144.2
	c-15.1-15.1-30.6-30.6-45.8-45.8c47.7-47.7,96-96,144.2-144.2C316.9,69.4,332.3,84.9,347.5,100z M316,39c7.7-7.3,14-17,26.5-17.5
	c5.9-0.2,11.6,0.9,16,4.9c5.9,5.3,11.7,10.8,16.8,16.8c6.7,7.8,6.9,20.5,0.7,28.7c-3.9,5.1-8.7,9.5-13,14.1
	C347.1,70.1,331.7,54.7,316,39z M132.4,269.3c4.8-17.5,9.5-34.3,14-50.7c12.1,12.1,24.3,24.3,36.6,36.7
	C166.7,259.8,149.9,264.5,132.4,269.3z"></path>
  </symbol>
  <symbol version="1.1" id="icon_en" xmlns="http://www.w3.org/2000/svg" xmlns:xlink="http://www.w3.org/1999/xlink" x="0px" y="0px" enable-background="new 0 0 512 512" xml:space="preserve" viewBox="0 0 512 512">
    <rect y="0.2" fill="#F5F5F5" width="511.5" height="511.5"></rect>
    <path fill="#FF4B55" d="M0,393.7h512V433H0V393.7z M0,511.8h512v-39.3H0V511.8z M0,354.4h512V315H0V354.4z M275.4,0.2v39.3H512V0.2
	H275.4z M275.4,118.3H512V78.9H275.4V118.3z M275.4,197H512v-39.3H275.4V197z M275.4,275.4H512V236H275.4V275.4z"></path>
    <path fill="#41479B" d="M0,0.2v275.4h275.4V0.2H0z M44.6,244.1l-5.4,4l2,6.4c0.3,0.8-0.7,1.5-1.4,1l-5.5-3.9l-5.5,3.9
	c-0.7,0.5-1.6-0.2-1.4-1l2-6.4l-5.4-4c-0.7-0.5-0.3-1.6,0.5-1.6l6.7-0.1l2.1-6.4c0.3-0.8,1.4-0.8,1.7,0l2.1,6.4l6.7,0.1
	C44.9,242.5,45.3,243.6,44.6,244.1z M44.6,194.9l-5.4,4l2,6.4c0.3,0.8-0.7,1.5-1.4,1l-5.5-3.9l-5.5,3.9c-0.7,0.5-1.6-0.2-1.4-1
	l2-6.4l-5.4-4c-0.7-0.5-0.3-1.6,0.5-1.6l6.7-0.1l2.1-6.4c0.3-0.8,1.4-0.8,1.7,0l2.1,6.4l6.7,0.1C44.9,193.3,45.3,194.4,44.6,194.9z
	 M44.6,140.8l-5.4,4l2,6.4c0.3,0.8-0.7,1.5-1.4,1l-5.5-3.9l-5.5,3.9c-0.7,0.5-1.6-0.2-1.4-1l2-6.4l-5.4-4c-0.7-0.5-0.3-1.6,0.5-1.6
	l6.7-0.1l2.1-6.4c0.3-0.8,1.4-0.8,1.7,0l2.1,6.4l6.7,0.1C44.9,139.2,45.3,140.3,44.6,140.8z M44.6,81.9l-5.4,4l2,6.4
	c0.3,0.8-0.7,1.5-1.4,1l-5.5-3.9l-5.5,3.9c-0.7,0.5-1.6-0.2-1.4-1l2-6.4l-5.4-4c-0.7-0.5-0.3-1.6,0.5-1.6l6.7-0.1l2.1-6.4
	c0.3-0.8,1.4-0.8,1.7,0l2.1,6.4l6.7,0.1C44.9,80.3,45.3,81.4,44.6,81.9z M44.6,28.9l-5.4,4l2,6.4c0.3,0.8-0.7,1.5-1.4,1l-5.5-3.9
	l-5.5,3.9c-0.7,0.5-1.6-0.2-1.4-1l2-6.4l-5.4-4c-0.7-0.5-0.3-1.6,0.5-1.6l6.7-0.1l2.1-6.4c0.3-0.8,1.4-0.8,1.7,0l2.1,6.4l6.7,0.1
	C44.9,27.2,45.3,28.3,44.6,28.9z M70.4,219.1l-5.4,4l2,6.4c0.3,0.8-0.7,1.5-1.4,1l-5.5-3.9l-5.5,3.9c-0.7,0.5-1.6-0.2-1.4-1l2-6.4
	l-5.4-4c-0.7-0.5-0.3-1.6,0.5-1.6l6.7-0.1l2.1-6.4c0.3-0.8,1.4-0.8,1.7,0l2.1,6.4l6.7,0.1C70.8,217.4,71.1,218.5,70.4,219.1z
	 M70.4,168.8l-5.4,4l2,6.4c0.3,0.8-0.7,1.5-1.4,1l-5.5-3.9l-5.5,3.9c-0.7,0.5-1.6-0.2-1.4-1l2-6.4l-5.4-4c-0.7-0.5-0.3-1.6,0.5-1.6
	l6.7-0.1l2.1-6.4c0.3-0.8,1.4-0.8,1.7,0l2.1,6.4l6.7,0.1C70.8,167.2,71.1,168.3,70.4,168.8z M70.4,112.9l-5.4,4l2,6.4
	c0.3,0.8-0.7,1.5-1.4,1l-5.5-3.9l-5.5,3.9c-0.7,0.5-1.6-0.2-1.4-1l2-6.4l-5.4-4c-0.7-0.5-0.3-1.6,0.5-1.6l6.7-0.1l2.1-6.4
	c0.3-0.8,1.4-0.8,1.7,0l2.1,6.4l6.7,0.1C70.8,111.3,71.1,112.4,70.4,112.9z M70.4,54L65,58l2,6.4c0.3,0.8-0.7,1.5-1.4,1l-5.5-3.9
	l-5.5,3.9c-0.7,0.5-1.6-0.2-1.4-1l2-6.4L50,54c-0.7-0.5-0.3-1.6,0.5-1.6l6.7-0.1l2.1-6.4c0.3-0.8,1.4-0.8,1.7,0l2.1,6.4l6.7,0.1
	C70.8,52.4,71.1,53.5,70.4,54z M96.3,244.1l-5.4,4l2,6.4c0.3,0.8-0.7,1.5-1.4,1l-5.5-3.9l-5.5,3.9c-0.7,0.5-1.6-0.2-1.4-1l2-6.4
	l-5.4-4c-0.7-0.5-0.3-1.6,0.5-1.6l6.7-0.1l2.1-6.4c0.3-0.8,1.4-0.8,1.7,0l2.1,6.4l6.7,0.1C96.6,242.5,97,243.6,96.3,244.1z
	 M96.3,194.9l-5.4,4l2,6.4c0.3,0.8-0.7,1.5-1.4,1l-5.5-3.9l-5.5,3.9c-0.7,0.5-1.6-0.2-1.4-1l2-6.4l-5.4-4c-0.7-0.5-0.3-1.6,0.5-1.6
	l6.7-0.1l2.1-6.4c0.3-0.8,1.4-0.8,1.7,0l2.1,6.4l6.7,0.1C96.6,193.3,97,194.4,96.3,194.9z M96.3,140.8l-5.4,4l2,6.4
	c0.3,0.8-0.7,1.5-1.4,1l-5.5-3.9l-5.5,3.9c-0.7,0.5-1.6-0.2-1.4-1l2-6.4l-5.4-4c-0.7-0.5-0.3-1.6,0.5-1.6l6.7-0.1l2.1-6.4
	c0.3-0.8,1.4-0.8,1.7,0l2.1,6.4l6.7,0.1C96.6,139.2,97,140.3,96.3,140.8z M96.3,81.9l-5.4,4l2,6.4c0.3,0.8-0.7,1.5-1.4,1L86,89.4
	l-5.5,3.9c-0.7,0.5-1.6-0.2-1.4-1l2-6.4l-5.4-4c-0.7-0.5-0.3-1.6,0.5-1.6l6.7-0.1l2.1-6.4c0.3-0.8,1.4-0.8,1.7,0l2.1,6.4l6.7,0.1
	C96.6,80.3,97,81.4,96.3,81.9z M96.3,28.9l-5.4,4l2,6.4c0.3,0.8-0.7,1.5-1.4,1L86,36.3l-5.5,3.9c-0.7,0.5-1.6-0.2-1.4-1l2-6.4
	l-5.4-4c-0.7-0.5-0.3-1.6,0.5-1.6l6.7-0.1l2.1-6.4c0.3-0.8,1.4-0.8,1.7,0l2.1,6.4l6.7,0.1C96.6,27.2,97,28.3,96.3,28.9z
	 M122.1,219.1l-5.4,4l2,6.4c0.3,0.8-0.7,1.5-1.4,1l-5.5-3.9l-5.5,3.9c-0.7,0.5-1.6-0.2-1.4-1l2-6.4l-5.4-4c-0.7-0.5-0.3-1.6,0.5-1.6
	l6.7-0.1l2.1-6.4c0.3-0.8,1.4-0.8,1.7,0l2.1,6.4l6.7,0.1C122.4,217.4,122.8,218.5,122.1,219.1z M122.1,168.8l-5.4,4l2,6.4
	c0.3,0.8-0.7,1.5-1.4,1l-5.5-3.9l-5.5,3.9c-0.7,0.5-1.6-0.2-1.4-1l2-6.4l-5.4-4c-0.7-0.5-0.3-1.6,0.5-1.6l6.7-0.1l2.1-6.4
	c0.3-0.8,1.4-0.8,1.7,0l2.1,6.4l6.7,0.1C122.4,167.2,122.8,168.3,122.1,168.8z M122.1,112.9l-5.4,4l2,6.4c0.3,0.8-0.7,1.5-1.4,1
	l-5.5-3.9l-5.5,3.9c-0.7,0.5-1.6-0.2-1.4-1l2-6.4l-5.4-4c-0.7-0.5-0.3-1.6,0.5-1.6l6.7-0.1l2.1-6.4c0.3-0.8,1.4-0.8,1.7,0l2.1,6.4
	l6.7,0.1C122.4,111.3,122.8,112.4,122.1,112.9z M122.1,54l-5.4,4l2,6.4c0.3,0.8-0.7,1.5-1.4,1l-5.5-3.9l-5.5,3.9
	c-0.7,0.5-1.6-0.2-1.4-1l2-6.4l-5.4-4c-0.7-0.5-0.3-1.6,0.5-1.6l6.7-0.1L111,46c0.3-0.8,1.4-0.8,1.7,0l2.1,6.4l6.7,0.1
	C122.4,52.4,122.8,53.5,122.1,54z M147.9,244.1l-5.4,4l2,6.4c0.3,0.8-0.7,1.5-1.4,1l-5.5-3.9l-5.5,3.9c-0.7,0.5-1.6-0.2-1.4-1l2-6.4
	l-5.4-4c-0.7-0.5-0.3-1.6,0.5-1.6l6.7-0.1l2.1-6.4c0.3-0.8,1.4-0.8,1.7,0l2.1,6.4l6.7,0.1C148.3,242.5,148.6,243.6,147.9,244.1z
	 M147.9,194.9l-5.4,4l2,6.4c0.3,0.8-0.7,1.5-1.4,1l-5.5-3.9l-5.5,3.9c-0.7,0.5-1.6-0.2-1.4-1l2-6.4l-5.4-4c-0.7-0.5-0.3-1.6,0.5-1.6
	l6.7-0.1l2.1-6.4c0.3-0.8,1.4-0.8,1.7,0l2.1,6.4l6.7,0.1C148.3,193.3,148.6,194.4,147.9,194.9z M147.9,140.8l-5.4,4l2,6.4
	c0.3,0.8-0.7,1.5-1.4,1l-5.5-3.9l-5.5,3.9c-0.7,0.5-1.6-0.2-1.4-1l2-6.4l-5.4-4c-0.7-0.5-0.3-1.6,0.5-1.6l6.7-0.1l2.1-6.4
	c0.3-0.8,1.4-0.8,1.7,0l2.1,6.4l6.7,0.1C148.3,139.2,148.6,140.3,147.9,140.8z M147.9,81.9l-5.4,4l2,6.4c0.3,0.8-0.7,1.5-1.4,1
	l-5.5-3.9l-5.5,3.9c-0.7,0.5-1.6-0.2-1.4-1l2-6.4l-5.4-4c-0.7-0.5-0.3-1.6,0.5-1.6l6.7-0.1l2.1-6.4c0.3-0.8,1.4-0.8,1.7,0l2.1,6.4
	l6.7,0.1C148.3,80.3,148.6,81.4,147.9,81.9z M147.9,28.9l-5.4,4l2,6.4c0.3,0.8-0.7,1.5-1.4,1l-5.5-3.9l-5.5,3.9
	c-0.7,0.5-1.6-0.2-1.4-1l2-6.4l-5.4-4c-0.7-0.5-0.3-1.6,0.5-1.6l6.7-0.1l2.1-6.4c0.3-0.8,1.4-0.8,1.7,0l2.1,6.4l6.7,0.1
	C148.3,27.2,148.6,28.3,147.9,28.9z M173.8,219.1l-5.4,4l2,6.4c0.3,0.8-0.7,1.5-1.4,1l-5.5-3.9l-5.5,3.9c-0.7,0.5-1.6-0.2-1.4-1
	l2-6.4l-5.4-4c-0.7-0.5-0.3-1.6,0.5-1.6l6.7-0.1l2.1-6.4c0.3-0.8,1.4-0.8,1.7,0l2.1,6.4l6.7,0.1
	C174.1,217.4,174.5,218.5,173.8,219.1z M173.8,168.8l-5.4,4l2,6.4c0.3,0.8-0.7,1.5-1.4,1l-5.5-3.9l-5.5,3.9c-0.7,0.5-1.6-0.2-1.4-1
	l2-6.4l-5.4-4c-0.7-0.5-0.3-1.6,0.5-1.6l6.7-0.1l2.1-6.4c0.3-0.8,1.4-0.8,1.7,0l2.1,6.4l6.7,0.1
	C174.1,167.2,174.5,168.3,173.8,168.8z M173.8,112.9l-5.4,4l2,6.4c0.3,0.8-0.7,1.5-1.4,1l-5.5-3.9l-5.5,3.9c-0.7,0.5-1.6-0.2-1.4-1
	l2-6.4l-5.4-4c-0.7-0.5-0.3-1.6,0.5-1.6l6.7-0.1l2.1-6.4c0.3-0.8,1.4-0.8,1.7,0l2.1,6.4l6.7,0.1
	C174.1,111.3,174.5,112.4,173.8,112.9z M173.8,54l-5.4,4l2,6.4c0.3,0.8-0.7,1.5-1.4,1l-5.5-3.9l-5.5,3.9c-0.7,0.5-1.6-0.2-1.4-1
	l2-6.4l-5.4-4c-0.7-0.5-0.3-1.6,0.5-1.6l6.7-0.1l2.1-6.4c0.3-0.8,1.4-0.8,1.7,0l2.1,6.4l6.7,0.1C174.1,52.4,174.5,53.5,173.8,54z
	 M199.6,244.1l-5.4,4l2,6.4c0.3,0.8-0.7,1.5-1.4,1l-5.5-3.9l-5.5,3.9c-0.7,0.5-1.6-0.2-1.4-1l2-6.4l-5.4-4c-0.7-0.5-0.3-1.6,0.5-1.6
	l6.7-0.1l2.1-6.4c0.3-0.8,1.4-0.8,1.7,0l2.1,6.4l6.7,0.1C200,242.5,200.3,243.6,199.6,244.1z M199.6,194.9l-5.4,4l2,6.4
	c0.3,0.8-0.7,1.5-1.4,1l-5.5-3.9l-5.5,3.9c-0.7,0.5-1.6-0.2-1.4-1l2-6.4l-5.4-4c-0.7-0.5-0.3-1.6,0.5-1.6l6.7-0.1l2.1-6.4
	c0.3-0.8,1.4-0.8,1.7,0l2.1,6.4l6.7,0.1C200,193.3,200.3,194.4,199.6,194.9z M199.6,140.8l-5.4,4l2,6.4c0.3,0.8-0.7,1.5-1.4,1
	l-5.5-3.9l-5.5,3.9c-0.7,0.5-1.6-0.2-1.4-1l2-6.4l-5.4-4c-0.7-0.5-0.3-1.6,0.5-1.6l6.7-0.1l2.1-6.4c0.3-0.8,1.4-0.8,1.7,0l2.1,6.4
	l6.7,0.1C200,139.2,200.3,140.3,199.6,140.8z M199.6,81.9l-5.4,4l2,6.4c0.3,0.8-0.7,1.5-1.4,1l-5.5-3.9l-5.5,3.9
	c-0.7,0.5-1.6-0.2-1.4-1l2-6.4l-5.4-4c-0.7-0.5-0.3-1.6,0.5-1.6l6.7-0.1l2.1-6.4c0.3-0.8,1.4-0.8,1.7,0l2.1,6.4l6.7,0.1
	C200,80.3,200.3,81.4,199.6,81.9z M199.6,28.9l-5.4,4l2,6.4c0.3,0.8-0.7,1.5-1.4,1l-5.5-3.9l-5.5,3.9c-0.7,0.5-1.6-0.2-1.4-1l2-6.4
	l-5.4-4c-0.7-0.5-0.3-1.6,0.5-1.6l6.7-0.1l2.1-6.4c0.3-0.8,1.4-0.8,1.7,0l2.1,6.4l6.7,0.1C200,27.2,200.3,28.3,199.6,28.9z
	 M225.5,219.1l-5.4,4l2,6.4c0.3,0.8-0.7,1.5-1.4,1l-5.5-3.9l-5.5,3.9c-0.7,0.5-1.6-0.2-1.4-1l2-6.4l-5.4-4c-0.7-0.5-0.3-1.6,0.5-1.6
	l6.7-0.1l2.1-6.4c0.3-0.8,1.4-0.8,1.7,0l2.1,6.4l6.7,0.1C225.8,217.4,226.2,218.5,225.5,219.1z M225.5,168.8l-5.4,4l2,6.4
	c0.3,0.8-0.7,1.5-1.4,1l-5.5-3.9l-5.5,3.9c-0.7,0.5-1.6-0.2-1.4-1l2-6.4l-5.4-4c-0.7-0.5-0.3-1.6,0.5-1.6l6.7-0.1l2.1-6.4
	c0.3-0.8,1.4-0.8,1.7,0l2.1,6.4l6.7,0.1C225.8,167.2,226.2,168.3,225.5,168.8z M225.5,112.9l-5.4,4l2,6.4c0.3,0.8-0.7,1.5-1.4,1
	l-5.5-3.9l-5.5,3.9c-0.7,0.5-1.6-0.2-1.4-1l2-6.4l-5.4-4c-0.7-0.5-0.3-1.6,0.5-1.6l6.7-0.1l2.1-6.4c0.3-0.8,1.4-0.8,1.7,0l2.1,6.4
	l6.7,0.1C225.8,111.3,226.2,112.4,225.5,112.9z M225.5,54l-5.4,4l2,6.4c0.3,0.8-0.7,1.5-1.4,1l-5.5-3.9l-5.5,3.9
	c-0.7,0.5-1.6-0.2-1.4-1l2-6.4l-5.4-4c-0.7-0.5-0.3-1.6,0.5-1.6l6.7-0.1l2.1-6.4c0.3-0.8,1.4-0.8,1.7,0l2.1,6.4l6.7,0.1
	C225.8,52.4,226.2,53.5,225.5,54z M251.3,244.1l-5.4,4l2,6.4c0.3,0.8-0.7,1.5-1.4,1l-5.5-3.9l-5.5,3.9c-0.7,0.5-1.6-0.2-1.4-1l2-6.4
	l-5.4-4c-0.7-0.5-0.3-1.6,0.5-1.6l6.7-0.1l2.1-6.4c0.3-0.8,1.4-0.8,1.7,0l2.1,6.4l6.7,0.1C251.6,242.5,252,243.6,251.3,244.1z
	 M251.3,194.9l-5.4,4l2,6.4c0.3,0.8-0.7,1.5-1.4,1l-5.5-3.9l-5.5,3.9c-0.7,0.5-1.6-0.2-1.4-1l2-6.4l-5.4-4c-0.7-0.5-0.3-1.6,0.5-1.6
	l6.7-0.1l2.1-6.4c0.3-0.8,1.4-0.8,1.7,0l2.1,6.4l6.7,0.1C251.6,193.3,252,194.4,251.3,194.9z M251.3,140.8l-5.4,4l2,6.4
	c0.3,0.8-0.7,1.5-1.4,1l-5.5-3.9l-5.5,3.9c-0.7,0.5-1.6-0.2-1.4-1l2-6.4l-5.4-4c-0.7-0.5-0.3-1.6,0.5-1.6l6.7-0.1l2.1-6.4
	c0.3-0.8,1.4-0.8,1.7,0l2.1,6.4l6.7,0.1C251.6,139.2,252,140.3,251.3,140.8z M251.3,81.9l-5.4,4l2,6.4c0.3,0.8-0.7,1.5-1.4,1
	l-5.5-3.9l-5.5,3.9c-0.7,0.5-1.6-0.2-1.4-1l2-6.4l-5.4-4c-0.7-0.5-0.3-1.6,0.5-1.6l6.7-0.1l2.1-6.4c0.3-0.8,1.4-0.8,1.7,0l2.1,6.4
	l6.7,0.1C251.6,80.3,252,81.4,251.3,81.9z M251.3,28.9l-5.4,4l2,6.4c0.3,0.8-0.7,1.5-1.4,1l-5.5-3.9l-5.5,3.9
	c-0.7,0.5-1.6-0.2-1.4-1l2-6.4l-5.4-4c-0.7-0.5-0.3-1.6,0.5-1.6l6.7-0.1l2.1-6.4c0.3-0.8,1.4-0.8,1.7,0l2.1,6.4l6.7,0.1
	C251.6,27.2,252,28.3,251.3,28.9z"></path>
  </symbol>
  <symbol version="1.1" id="icon_eye" xmlns="http://www.w3.org/2000/svg" xmlns:xlink="http://www.w3.org/1999/xlink" x="0px" y="0px" enable-background="new 0 0 409.6 409.6" xml:space="preserve" viewBox="0 0 409.6 409.6">
    <path d="M409.2,207.2c-2,3.3-3.6,6.8-6,9.8c-28.8,36.1-62.2,67-102.4,90.2c-26.4,15.2-54.7,25.5-85.4,27.5
	c-25,1.7-49.3-2.5-72.7-11.4c-35.3-13.4-65.7-34.7-93.4-59.9C33.2,248.5,18.3,232.4,4.8,215c-5.8-7.4-5.8-13.1,0-20.5
	c29-36.8,62.8-68.3,103.5-91.9c32-18.5,66.2-29.6,103.6-27.9c25.7,1.1,50,8.1,73,19.4c48.4,23.8,87.1,59.1,120.2,101
	c1.7,2.1,2.7,4.8,4,7.3C409.2,204,409.2,205.6,409.2,207.2z M30.9,204.5c1.5,1.8,2.5,3.2,3.7,4.4C47,221.6,58.9,235,72,246.9
	c25.3,23.1,53.5,41.9,86.3,53.1c19.6,6.7,39.8,9.5,60.5,7.2c26.5-2.9,50.6-12.8,73.3-26.3c29.5-17.7,54.7-40.4,77.5-65.9
	c3-3.3,5.8-6.8,9-10.5c-7.8-8.5-15.2-16.9-23-24.8C329.4,153,300.2,130,265.5,115c-17.3-7.5-35.3-12.4-54.3-13.3
	c-29-1.4-55.7,6.7-81.1,19.9c-28.4,14.7-53,34.5-75.3,57.1C46.6,187,38.9,195.8,30.9,204.5z M285.6,205.1
	c-0.3,44.8-36.8,80.9-81.3,80.4c-44.7-0.5-80.6-36.7-80.2-81.1c0.3-44.8,36.8-80.9,81.3-80.4C250,124.5,285.9,160.7,285.6,205.1z
	 M258.6,204.9c0.2-29.6-23.7-53.7-53.6-54c-29.6-0.3-54.2,24.2-54.1,53.9c0.1,29.7,24.1,53.8,53.8,53.8
	C234.3,258.7,258.5,234.7,258.6,204.9z"></path>
  </symbol>
  <symbol version="1.1" id="icon_eye-slash" xmlns="http://www.w3.org/2000/svg" xmlns:xlink="http://www.w3.org/1999/xlink" x="0px" y="0px" enable-background="new 0 0 384 384" xml:space="preserve" viewBox="0 0 384 384">
    <path d="M0,189c34.3-56.7,81.7-96.6,147.2-112c43-10.1,85.1-5.7,125.8,11.8c2.9,1.3,4.6,0.8,6.7-1.3c11.7-11.9,23.6-23.7,35.5-35.6
	c3.5-3.5,7.6-4.8,12.3-3.3c4.5,1.3,7.2,4.4,8.2,8.9c1.1,4.8-0.8,8.7-4.3,12.1c-16.2,16.1-32.4,32.3-48.5,48.5
	C212,189,141.1,259.8,70.2,330.8c-3.5,3.5-7.2,6-12.2,5c-4.7-0.8-7.9-3.6-9.4-8.2c-1.5-4.7-0.3-8.9,3.2-12.4c10-10,20-20,30-30
	c1-1,2.1-1.8,3.6-3C49.7,259.6,20.9,231.2,0,195C0,193,0,191,0,189z M132.9,233.3c-22.5-33.2-13-71.3,8.4-92.5
	c21.3-21.1,59.1-30.2,91.6-8.2c8.1-8.1,16.2-16.2,24.2-24.2c0.1,0.1-0.2-0.2-0.5-0.3c-41.2-15.6-82.7-16.6-124.2-1.8
	C88,122.1,54.4,151.6,27.6,189.6c-1.4,2-1,3.2,0.2,4.9c10.1,14.5,21.7,27.8,34.7,39.7c12.3,11.4,25.7,21.4,40.1,29.5
	C112.8,253.5,122.9,243.4,132.9,233.3z M150.9,215.6c21.7-21.7,43.2-43.2,64.7-64.7c-13.4-9.7-39-10.7-56.9,6.6
	C140.9,174.7,140.5,200.4,150.9,215.6z M384,189c-16.5-28.9-38.6-52.8-64.3-72.9c-6.1,6-11.7,11.6-17.5,17.4
	c1.1,0.9,2.4,1.9,3.7,2.9c19.5,15.1,36.2,32.9,50.4,53.1c1.4,2,1.3,3.3,0,5.2c-12.4,17.7-26.6,33.8-43.3,47.5
	c-46.5,38.3-99,54.1-158.9,41.5c-1-0.2-2.5-0.1-3.1,0.5c-6.3,6-12.4,12.2-18.7,18.5c0.9,0.5,1.3,0.8,1.8,0.9
	c36.2,10.5,72.7,11.8,109.1,2C305.5,288.7,351,249.7,384,195C384,193,384,191,384,189z M244,241.8c19.5-20.3,23.7-49.7,17-67.9
	c-7,7-13.9,13.8-20.6,20.8c-0.7,0.7-0.9,2-1,3.1c-2.8,22.2-19.4,38.7-41.7,41.6c-1.1,0.1-2.4,0.4-3.1,1.1
	c-7,6.8-13.8,13.6-20.8,20.6C193.6,267.9,223.6,263,244,241.8z"></path>
  </symbol>
  <symbol id="icon_filter" xmlns="http://www.w3.org/2000/svg" viewBox="0 0 323.4 305.3">
    <title>2676824_a</title>
    <path d="M289.5,0H34.7C20.1.1,9.2,6.7,3.2,20S-.3,45.9,9.5,56.7Q62.8,115.5,116.2,174a13.1,13.1,0,0,1,3.8,9.5c-.2,36.2-.1,72.4-.1,108.5,0,6.8,3.6,11.7,9.5,13s8.2-.9,11.7-3.6L198,255.8a14.6,14.6,0,0,0,5.8-12.2c-.2-20,0-39.9-.2-59.9a13.2,13.2,0,0,1,3.7-9.6q53.6-58.5,106.8-117.2A34.5,34.5,0,0,0,323.4,35C324.1,15.7,309,.1,289.5,0Zm6.2,41.3c-35.6,39.1-71,78.4-106.8,117.3-6.5,7.1-9.7,14.1-9.3,23.9.7,17.9.2,35.9.2,53.8,0,1.8-.1,3.3-1.7,4.6-11,8.8-22,17.6-32.9,26.5l-1.4.6v-3.9q0-44.1.1-88.3a16.5,16.5,0,0,0-4.6-11.7L27.9,41.4c-3.2-3.5-5-7.2-2.8-11.8s5.8-5.7,10.4-5.7q126.3.2,252.5,0c4.7,0,8.4,1.4,10.4,5.8S298.8,37.9,295.7,41.3Z"></path>
  </symbol>
  <symbol id="icon_filter-fill" xmlns="http://www.w3.org/2000/svg" viewBox="0 0 323.5 305.4">
    <title>2676824_b</title>
    <path d="M289.5,0H34.7C20.1.1,9.2,6.7,3.2,20S-.3,45.9,9.5,56.7Q62.8,115.5,116.2,174a12.9,12.9,0,0,1,3.8,9.5c-.2,36.2-.1,72.4-.1,108.5,0,6.8,3.6,11.7,9.5,13s8.2-.9,11.7-3.6L198,255.8a14.6,14.6,0,0,0,5.8-12.2c-.2-20,0-39.9-.2-59.9a13.2,13.2,0,0,1,3.7-9.6q53.6-58.5,106.8-117.2A34.5,34.5,0,0,0,323.4,35C324.1,15.7,309,.1,289.5,0Z" transform="translate(0 0)"></path>
  </symbol>
  <symbol version="1.1" id="icon_home" xmlns="http://www.w3.org/2000/svg" xmlns:xlink="http://www.w3.org/1999/xlink" x="0px" y="0px" enable-background="new 0 0 384 384" xml:space="preserve" viewBox="0 0 384 384">
    <path d="M0,197.2c0-3.5,0-7,0-10.5c2.3-11.4,9.7-19.2,17.6-27.1c47.6-47.3,95-94.8,142.4-142.4c7.8-7.8,15.6-15.1,26.8-17.3
	c3.5,0,7,0,10.5,0c11.4,2.3,19.4,9.5,27.1,17.5c10.5,10.9,21.3,21.4,32,32.2c0.9,0.9,1.4,2.4,2.1,3.6c0.5-0.4,1.1-0.7,1.6-1.1
	c0-1.3,0-2.6,0-3.9c0-11.2,0.2-22.5-0.1-33.7C259.7,7.6,262,2.7,268.5,0c18,0,36,0,54,0c6.4,3.1,8.3,8.2,8.3,15.2
	c-0.2,35.1-0.1,70.2-0.2,105.3c0,2.6,0.8,4.4,2.6,6.2c11.4,11.2,22.5,22.7,34,33.8c8,7.7,14.9,15.7,16.8,27.1c0,3,0,6,0,9
	c-0.3,0.9-0.5,1.9-0.8,2.8c-3.9,15.1-13.4,24.5-28.7,27.5c-3.7,0.7-7.6,0.5-11.8,0.7c0,1.5,0,3,0,4.5c0,36.6,0.1,73.2,0,109.7
	c0,19-11.4,34.7-28.8,40.3c-2.3,0.7-4.7,1.3-7.1,2c-27,0-54,0-81,0c-6.7-2.5-9-7.3-9-14.3c0.2-25.8,0.1-51.7,0.1-77.5
	c0-1.4,0-2.9,0-4.4c-16.8,0-33.1,0-49.7,0c0,1.8,0,3.2,0,4.7c0,25.7-0.1,51.4,0.1,77.2c0,6.9-2.3,11.8-9,14.3c-27,0-54,0-81,0
	c-0.3-0.2-0.6-0.5-0.9-0.6c-17.4-2.2-35.4-18.3-35.1-43.3c0.4-36.2,0.1-72.4,0.1-108.6c0-1.4,0-2.8,0-4.2c-1.9,0-3.1,0-4.4,0
	c-17.7,0.5-32.2-10.8-36.1-28.1C0.6,198.6,0.3,197.9,0,197.2z M239.3,361.5c20.1,0,39.6,0,59.1,0c14.3,0,21.8-7.4,21.8-21.6
	c0-40.6,0-81.2,0.1-121.9c0-3-0.8-5.1-2.9-7.2c-40.9-40.8-81.7-81.6-122.5-122.4c-0.9-0.9-1.8-1.6-2.8-2.6c-0.9,0.8-1.7,1.4-2.3,2.1
	c-41.3,41.3-82.6,82.5-123.7,123.9c-1.2,1.2-2,3.4-2.1,5.2c-0.1,41.2-0.1,82.5-0.1,123.7c0,13,7.7,20.8,20.7,20.8
	c18.7,0,37.5,0,56.2,0c1.2,0,2.4-0.1,3.9-0.2c0-1.7,0-3.2,0-4.7c0-26,0-52,0-78c0-9.4,4.1-13.5,13.5-13.5c22.5,0,45,0,67.5,0
	c9.7,0,13.7,4.1,13.7,13.6c0,26,0,52,0,78C239.3,358.1,239.3,359.6,239.3,361.5z M35.4,204.9c4.5,0.1,7.7-2.2,10.8-5.3
	c45.2-45.3,90.5-90.5,135.7-135.8c7.3-7.3,12.9-7.3,20.2-0.1c45.1,45.1,90.1,90.1,135.2,135.2c1.1,1.1,2.1,2.2,3.2,3.1
	c7.1,5.7,17.6,2.4,20.3-6.3c1.9-6.2-0.9-10.8-5.1-15C304.8,129.9,253.9,79,203,28.1c-7.6-7.6-14.4-7.6-22,0
	C130.1,79,79.2,129.9,28.3,180.8c-1.1,1.1-2.2,2.1-3.1,3.3c-3.2,4.3-3.8,8.9-1.3,13.7C26.3,202.4,30.2,204.8,35.4,204.9z
	 M307.9,101.4c0-26.8,0-52.7,0-78.6c-8.6,0-16.9,0-25.4,0c0,17.3,0,34.4,0,51.5c0,0.9,0.5,2,1.1,2.6
	C291.5,84.9,299.4,92.8,307.9,101.4z"></path>
  </symbol>
  <symbol version="1.1" id="icon_key" xmlns="http://www.w3.org/2000/svg" xmlns:xlink="http://www.w3.org/1999/xlink" x="0px" y="0px" xml:space="preserve" viewBox="0 0 256 256">
    <path d="M72,232H32c-4.4,0-8-3.6-8-8v-40c0-2.1,0.8-4.2,2.3-5.7l57.6-57.6c-2.6-8-4-16.3-3.9-24.8c0-44.1,35.9-80,80-80
	s80,35.9,80,80s-35.9,80-80,80c-0.1,0-0.2,0-0.3,0c-8.4,0-16.6-1.3-24.5-3.9l-9.6,9.6c-1.5,1.5-3.5,2.3-5.7,2.3h-16v16
	c0,4.4-3.6,8-8,8H80v16C80,228.4,76.4,232,72,232z M40,216h24v-16c0-4.4,3.6-8,8-8h16v-16c0-4.4,3.6-8,8-8h20.7l10.9-10.9
	c2.3-2.3,5.7-3,8.7-1.8c7.5,3.1,15.4,4.6,23.5,4.6c0.1,0,0.2,0,0.2,0c35.3,0,64-28.7,64-64c0-35.3-28.7-64-64-64
	c-35.3,0-64,28.7-64,64c0,8.2,1.5,16.2,4.6,23.8c1.2,3,0.5,6.4-1.8,8.7L40,187.3V216z M180,64c6.6,0,12,5.4,12,12s-5.4,12-12,12
	s-12-5.4-12-12S173.4,64,180,64z"></path>
  </symbol>
  <symbol version="1.1" id="icon_logo" xmlns="http://www.w3.org/2000/svg" xmlns:xlink="http://www.w3.org/1999/xlink" x="0px" y="0px" enable-background="new 0 0 281 281" xml:space="preserve" viewBox="0 0 281 281">
    <path d="M254.1,54.2c-17.9-17.3-39.3-27.8-64-31.4c-2.1,0-3.3-1.2-3.5-3.6C184.6,6.4,178.5,0,168.1,0
	c-5,0-9.2,2.6-12.7,7.7c-3.5,5.2-5.9,9.1-7.1,11.8c-1.7,3.3-3.3,5-5,5c-6.6,0.6-12.6,1.8-18,3.4c-5.4,1.7-9.6,3.1-12.4,4.3
	c-3.5,1.8-7,4.7-10.3,8.7c-3.3,3.9-5,8.7-5,14.1c0,6.1,1.4,11,4.1,14.8c2.7,3.8,5.5,4.6,8.3,2.5c2.8-2.4,6-4.8,9.6-7.1
	c3.5-2.3,7.5-3.7,12-4.3c2.8,0,3.7,1.5,2.5,4.6c-1.2,4.3-3.6,12.7-7.3,25.3c-1.1,3.8-2.2,7.7-3.3,11.7c-5-4.1-10.6-7.5-16.9-9.9
	C72,79.1,46.5,55.8,31.1,21.7c-0.7-1.5-0.6-3.8-3.3-4.2c-2.6,20.8,5,38.3,17.2,54.2C56.7,87,71.5,98.9,86.8,110
	c13.5,9.8,13.6,9.8,9.5,25.5c-0.5,2.1-1.1,4.2-1.5,6.3c-3.8,19.7-4.4,39.2,2,58.6c0.2,0.7,0.4,1.2,0.7,1.7c-0.2,1-0.3,1.9-0.5,2.8
	c-0.4,1.7-0.7,3.3-1,4.9c-0.9-2.6-2.2-5.1-2.6-6.4c-8.5-24.7-8.4-49.5-0.4-74.2c2.1-6.3,0.2-8.2-5-10.9C50.3,99,19.4,73.1,7,30.4
	c-0.5,0.1-0.9,0.2-1,0.3c-0.4,1-1,1.9-1.2,2.9c-4.8,21.2-1.6,41,10.7,59c12.9,18.8,30.7,31.8,50.8,42.1c1.9,1,4,1.8,5.7,3.1
	c1.7,1.3,1.5,3.6,0.7,5.3c-1,2.2-2.8,0.6-4.1,0.1c-25.1-11-47-25.8-61.5-49.8C4.9,89.8,3.1,86.1,0.4,81
	c-1.7,17.4,2.6,31.3,11.3,43.9c11,16,26.3,27.2,43.3,35.9c4.6,2.4,9.3,4.3,14,6.4c3.7,1.7,3.1,5.3,2.2,7.7c-1.1,2.8-3.7,0.4-5.4-0.3
	c-19.8-8.2-37.3-19.7-51.4-36c-3.5-4-6.5-8.5-10.8-14.1c0.5,3.6,0.7,5.4,1,7.1c0.4,2.1,0.8,4.3,1.4,6.3
	c7.8,26.6,26.7,43.9,48.7,58.8c5,3.4,31.4,21.1,38.8,21.1c0.4,0,0.7,0,1.1-0.1c-1.7,10.7-2.1,18.9-1.1,24.5
	c1.6,11.5,6.5,20.9,14.5,28c8,7.1,14.5,10.7,19.5,10.7c8.7,0,19.5-1.7,32.4-5c12.9-3.3,24.9-8.8,36.3-16.4
	c3.8-2.4,10.3-7.9,19.6-16.4c9.3-8.5,18.8-19.3,28.5-32.3c9.7-13.1,18.2-28.2,25.6-45.3c7.4-17.1,11.1-35.7,11.1-55.8
	C281,90,272,71.5,254.1,54.2z M230,160.5c-7.3,15.3-16,29.3-26,41.9c-10,12.6-20.2,22.8-30.6,30.7c-10.4,7.9-18.6,11.8-24.8,11.8
	c-3.5,0-7.1-2.7-10.6-8.2c-4-6.4-3.7-19.4,1.1-39.2c3.1-15.5,8.3-37.1,15.7-64.9c7.4-27.8,14-49.9,19.6-66.3
	c1.2-4.9,3.5-7.1,7.1-6.8c14.4,0.3,27.9,4.8,40.5,13.4c12.6,8.7,18.9,22.7,18.9,42.1C241,130.1,237.3,145.2,230,160.5z"></path>
  </symbol>
  <symbol color="currentColor" xmlns="http://www.w3.org/2000/svg" viewBox="0 0 24 24" id="icon_out">
    <g>
      <path d="M0 0h24v24H0z" fill="none"></path>
      <path d="M12 22C6.477 22 2 17.523 2 12S6.477 2 12 2a9.985 9.985 0 0 1 8 4h-2.71a8 8 0 1 0 .001 12h2.71A9.985 9.985 0 0 1 12 22zm7-6v-3h-8v-2h8V8l5 4-5 4z"></path>
    </g>
  </symbol>
  <symbol version="1.1" id="icon_paste" xmlns="http://www.w3.org/2000/svg" xmlns:xlink="http://www.w3.org/1999/xlink" x="0px" y="0px" enable-background="new 0 0 384 384" xml:space="preserve" viewBox="0 0 384 384">
    <path d="M141,0c2.4,0.6,4.8,1.1,7.2,1.9c13.4,4.6,22.1,13.7,26.2,27.1c0.7,2.5,1.8,3.1,4.1,3c6.7-0.1,13.5-0.1,20.2,0
	c6.3,0.1,9.1,2.9,9.2,9.2c0,2.1,0,4.2,0,6.7c8.1,0,15.8,0,23.5,0c8.9,0,17,2.5,24.2,7.8c10.9,8.1,16.3,19.1,16.4,32.5
	c0.2,15.5,0.1,31,0,46.5c0,3.9-1.3,7.1-5.3,8.6c-3.3,1.3-6.5,0.6-8.4-2.1c-1.4-2-2.2-4.8-2.3-7.2c-0.2-14.6-0.1-29.2-0.1-43.9
	c0-16.5-9.8-26.3-26.4-26.3c-7,0-14,0-21.6,0c0,2.4,0,4.6,0,6.8C207.8,86,197.8,96,182.5,96c-31,0-62,0-93,0
	c-15.2,0-25.4-10.1-25.5-25.3c0-2.1,0-4.2,0-7.1C53.7,64,43.8,63.5,34.1,65C23.8,66.5,16.8,76,16,87c-0.1,1-0.1,2-0.1,3
	c0,68,0,136,0,203.9c0,12.7,6.6,22.2,17.8,25.1c3,0.8,6.2,1,9.3,1c40.4,0.1,80.7,0,121.1,0c1.4,0,2.8,0,4.1,0.1
	c4.5,0.3,7.9,3.7,7.8,8c-0.1,4.3-3.4,7.6-7.9,7.9c-1.4,0.1-2.7,0-4.1,0c-40.6,0-81.2-0.2-121.8,0.1c-23.5,0.2-39.3-16.7-41.5-33.7
	c0-0.3-0.4-0.6-0.6-0.9c0-73,0-146,0-219c0.2-0.7,0.6-1.3,0.7-2c1.7-8.2,5.4-15.3,11.4-21.1c7.7-7.4,17-11.3,27.7-11.4
	c8-0.1,15.9,0,24.1,0c0-2.2,0-3.9,0-5.6c0-7.7,2.7-10.3,10.4-10.3c7.4,0,14.7,0,22.2,0c0.4-1.1,0.7-2,1-3
	c3.9-12.7,12.1-21.6,24.5-26.5c2.7-1.1,5.7-1.7,8.5-2.6C134,0,137.5,0,141,0z M192,48c-8,0-15.5,0-22.9,0c-5.6,0-8.5-2.8-9.1-8.3
	c-0.2-1.7-0.2-3.5-0.6-5.2c-2.8-11.4-13.3-19.3-24.5-18.5c-12.4,0.9-21.3,9.7-22.7,22.4c-0.9,7.7-3,9.6-10.8,9.6c-7,0-13.9,0-21.2,0
	c0,7.3,0,14.1,0,21c0,8.7,2.4,11.1,11.2,11.1c29.9,0,59.7,0,89.6,0c1.5,0,3,0,4.5-0.2c3.9-0.7,6.6-3.5,6.7-7.4
	C192.1,64.4,192,56.4,192,48z M212.2,384c-2.1-0.8-4.3-1.3-6.3-2.3c-8.8-4.4-13.9-11.6-13.9-21.4c-0.1-58.9-0.1-117.7,0-176.6
	c0-13.1,10.2-23.5,23.7-23.6c33.2-0.3,66.5-0.2,99.7,0c11,0.1,20.4,4.4,28.1,12.2c9.4,9.4,18.7,18.8,28.1,28.1
	c6.8,6.6,10.4,14.8,12.3,23.9c0,46.5,0,93,0,139.5c-0.8,2.3-1.5,4.7-2.6,6.9c-3.6,7.5-10,11.3-17.7,13.4
	C313.2,384,262.8,384,212.2,384z M207.9,271.9c0,28.4,0,56.7,0,85.1c0,8.4,2.7,11,11,11c46.1,0,92.2,0,138.3,0
	c8.1,0,10.9-2.7,10.9-10.8c0-42,0-84,0-125.9c0-8.1-2.6-14.8-8.4-20.5c-8.9-8.6-17.6-17.4-26.2-26.2c-5.7-5.9-12.4-8.7-20.7-8.7
	c-31.4,0.2-62.7,0.1-94.1,0.1c-8.2,0-10.7,2.5-10.7,10.8C207.9,215.2,207.9,243.6,207.9,271.9z M251.1,255.9c-1.1,0-2.3-0.1-3.4,0.1
	c-4.6,0.5-7.8,3.8-7.7,8.1c0,4.2,3,7.3,7.5,7.9c1,0.1,2,0.1,3,0.1c25,0,49.9,0,74.9,0c1.4,0,2.8,0,4.1-0.3c3.9-0.8,6.4-3.9,6.5-7.6
	c0.1-3.9-2.6-7.1-6.6-7.9c-1.3-0.3-2.7-0.3-4.1-0.3c-12.4,0-24.7,0-37.1,0C275.8,255.9,263.5,255.9,251.1,255.9z M249.4,304
	c-5.7,0-9.3,3.2-9.4,8c0,4.8,3.5,8,9.3,8.1c1.6,0,3.2,0,4.9,0c23.2,0,46.4,0,69.6,0c0.9,0,1.7,0,2.6,0c6-0.1,9.6-3.3,9.6-8.2
	c-0.1-4.8-3.7-7.9-9.4-7.9c-12.9-0.1-25.7,0-38.6,0C275.1,303.9,262.2,303.9,249.4,304z"></path>
  </symbol>
  <symbol version="1.1" id="icon_plus" xmlns="http://www.w3.org/2000/svg" xmlns:xlink="http://www.w3.org/1999/xlink" x="0px" y="0px" enable-background="new 0 0 409.6 409.6" xml:space="preserve" viewBox="0 0 409.6 409.6">
    <path d="M409.2,208c-3.3,9.5-10,12.9-19.9,12.9c-54.4-0.2-108.8-0.1-163.3-0.1c-1.6,0-3.2,0-5.3,0c0,1.8,0,3.3,0,4.9
	c0,54.6-0.1,109.1,0.1,163.7c0,9.9-3.3,16.7-12.9,19.9c-2.1,0-4.3,0-6.4,0c-9.5-3.3-12.9-10.1-12.9-19.9
	c0.2-54.4,0.1-108.9,0.1-163.3c0-1.6,0-3.2,0-5.2c-1.8,0-3.4,0-4.9,0c-55.1,0-110.2,0-165.3,0c-5.3,0-10.1-1-13.8-5
	c-4.4-4.8-5.7-10.5-3.4-16.7c2.4-6.1,7.1-9.5,13.6-10.2c1.6-0.2,3.2-0.1,4.8-0.1c54.6,0,109.1,0,163.7,0c1.6,0,3.2,0,5.3,0
	c0-1.8,0-3.3,0-4.9c0-55.1,0-110.2,0-165.3c0-5.4,1.1-10.4,5.3-14.1c4.8-4.2,10.4-5.4,16.4-3.1c6.1,2.3,9.5,7.1,10.2,13.6
	c0.2,1.6,0.1,3.2,0.1,4.8c0,54.6,0,109.1,0,163.7c0,1.6,0,3.2,0,5.3c1.8,0,3.3,0,4.8,0c54.6,0,109.1,0.1,163.7-0.1
	c9.9,0,16.7,3.3,19.9,12.9C409.2,203.8,409.2,205.9,409.2,208z"></path>
  </symbol>
  <symbol version="1.1" id="icon_sort" xmlns="http://www.w3.org/2000/svg" xmlns:xlink="http://www.w3.org/1999/xlink" x="0px" y="0px" xml:space="preserve" viewBox="0 0 303.28 447.18">
    <path d="M141.28,447.18c-4.16-2.92-8.84-5.31-12.4-8.84C87.86,397.6,46.99,356.7,6.1,315.82c-7.55-7.54-8.11-16.64-1.59-23.42
	c6.08-6.32,14.87-6.81,21.58-1.16c1.27,1.07,2.42,2.29,3.6,3.47c31.12,31.08,62.25,62.16,93.34,93.29c1.24,1.25,2.04,2.94,3.05,4.42
	c0.59-0.38,1.18-0.77,1.77-1.15c0-2.1,0-4.19,0-6.29c0-120.97,0-241.94,0-362.91c0-2.17-0.06-4.34,0.04-6.5
	c0.46-9.8,6.3-15.54,15.79-15.58c9.55-0.04,15.44,5.56,16.04,15.33c0.13,2.16,0.07,4.33,0.07,6.5c0,122.13,0,244.27,0,366.4
	c0,2.09,0,4.18,0,7.37c2.16-1.81,3.41-2.79,4.58-3.85c35.87-32.37,71.72-64.77,107.6-97.13c12.93-11.66,22.37-10.25,31.31,4.55
	c0,3.33,0,6.67,0,10c-1.72,1.98-3.25,4.19-5.19,5.92c-46.46,41.35-92.94,82.68-139.53,123.88c-3.65,3.23-8.17,5.49-12.28,8.2
	C144.62,447.18,142.95,447.18,141.28,447.18z"></path>
  </symbol>
  <symbol version="1.1" id="icon_search" xmlns="http://www.w3.org/2000/svg" xmlns:xlink="http://www.w3.org/1999/xlink" x="0px" y="0px" enable-background="new 0 0 491.5 491.5" xml:space="preserve" viewBox="0 0 491.5 491.5">
    <path d="M219.9,0.4c8.8,1.3,17.7,2.2,26.4,3.8c42.5,8.1,78.8,27.8,109.1,58.5c27.5,28,45.7,61.2,53.5,99.7
	c9.8,48.4,3,94.6-21.2,137.7c-7.8,13.8-17.6,26.5-26.5,39.7c-0.8,0.3-1.7,0.6-2.5,1c1.6,0.8,3.5,1.3,4.7,2.5
	c40.2,39.5,80.4,79,120.4,118.6c2.9,2.8,4.8,6.6,7.2,9.9c0,2.2,0,4.5,0,6.7c-5,10.7-12.6,14.8-21.4,11.3c-2.9-1.1-5.5-3.3-7.7-5.5
	c-40.5-39.7-80.8-79.5-121.2-119.2c-1.2-1.2-2.5-2.4-3.8-3.6c-6.5,4.4-12.7,9-19.1,13c-36.1,22.8-75.8,33.4-118.3,31.8
	c-56.1-2.1-103.9-23.7-143-64.1C27.1,311.9,9,275.6,2.9,233.8C-5,179.6,6.8,129.7,39.3,85.4c31.3-42.7,73.2-69.4,125-80.5
	c8.1-1.7,16.4-2.4,24.6-3.6c1.4-0.2,2.8-0.6,4.1-0.9C202,0.4,210.9,0.4,219.9,0.4z M32.1,202.5c0.4,7.1,0.4,13,1.1,18.9
	c4.4,37.1,18.5,69.9,44.3,97.1c45,47.6,100.7,65.5,164.5,53.1c55.9-10.9,97.7-43,122.5-94.8c25-52.2,23.5-104.9-4.5-155.3
	c-28.6-51.7-73.9-81.1-132.5-88.3c-46.3-5.7-88.9,5.6-126.2,33.8C56.2,101.2,33.7,147.3,32.1,202.5z"></path>
  </symbol>
  <symbol version="1.1" id="icon_times" xmlns="http://www.w3.org/2000/svg" xmlns:xlink="http://www.w3.org/1999/xlink" x="0px" y="0px" enable-background="new 0 0 384 384" xml:space="preserve" viewBox="0 0 384 384">
    <path d="M191.7,208.2c-1.4,1.8-2.2,3.1-3.2,4.2C141,260,93.4,307.5,45.9,355.1c-3.7,3.7-7.7,6-13.1,4.5c-8.5-2.4-11.6-12.4-6-19.2
	c0.9-1.1,1.9-2,2.9-3C77,290,124.4,242.6,171.8,195.3c1-1,2.2-1.7,3.2-2.5c0.2-0.6,0.4-1.1,0.7-1.7c-1.3-0.8-2.8-1.3-3.9-2.3
	c-47.5-47.4-95-94.9-142.3-142.5c-2.3-2.3-4.1-5.8-4.6-9c-0.9-5,1.7-8.9,6.3-11.3c4.6-2.3,9-1.7,13,1.4c1.1,0.8,2,1.9,3,2.9
	c47.2,47.2,94.4,94.4,141.6,141.6c1,1,1.7,2.2,4.2,3.9c0.7-1.3,1.3-2.9,2.3-3.9c47.6-47.7,95.3-95.3,142.9-143c3.8-3.8,8-6,13.4-4.3
	c8.1,2.5,11.1,12.1,5.9,18.8c-1,1.3-2.2,2.4-3.4,3.5c-47.2,47.2-94.4,94.4-141.6,141.6c-1.1,1.1-2.2,2-3.6,3.2
	c1.3,1.4,2.3,2.4,3.3,3.5c47.6,47.5,95.2,95.1,142.6,142.7c2.3,2.3,4.2,5.4,5,8.5c1.3,4.7-1.5,9.6-5.7,12c-4.2,2.4-9.5,2.1-13.4-1
	c-1.2-0.9-2.2-2-3.3-3.1c-47.3-47.3-94.6-94.6-141.9-141.8C194.4,211.5,193.5,210.3,191.7,208.2z"></path>
  </symbol>
  <symbol version="1.1" id="icon_trash" xmlns="http://www.w3.org/2000/svg" xmlns:xlink="http://www.w3.org/1999/xlink" x="0px" y="0px" enable-background="new 0 0 384 384" xml:space="preserve" viewBox="0 0 384 384">
    <path d="M162.8,384c-2.4-0.6-4.8-1.2-7.2-1.9c-21.2-6.1-35.5-25.1-35.5-47.4c-0.1-56,0-111.9,0-167.9c0-1.3,0-2.7,0-4.7
	c-1.3,1.2-2.2,1.9-2.9,2.6c-8.2,8.2-16.4,16.5-24.7,24.6c-5.7,5.7-12,5.6-17.7,0c-6.2-6.2-12.4-12.3-18.6-18.6
	c-11.2-11.4-11.2-27.1,0-38.4c6.6-6.6,13.2-13.2,20.4-20.4c-3.4-3.2-6.7-6.1-9.8-9.1C53.4,89.3,53.5,71.4,67,57.9c13-13,26-26,39-39
	c13.3-13.3,31.2-13.3,44.6-0.1c3.1,3.1,6.1,6.3,9.5,9.9c4.4-4.5,8.5-8.6,12.6-12.7c3.4-3.4,6.4-7.1,10.2-9.9
	C186.5,3.5,190.9,2,195,0c3,0,6,0,9,0c8.4,2.1,14.3,7.7,20,13.7c3.9,4.1,7.9,8,11.9,12c7.3,7.3,7.3,12.9,0.1,20.1
	c-24.6,24.7-49.3,49.3-74,74c-0.9,0.9-1.8,1.9-3.1,3.2c23.5,0,46.1,0,69.1,0c0-6.7-0.1-13.2,0-19.7c0.1-9.1,5.4-16.1,14-18.6
	c23.1-6.7,46.3-13.3,69.5-19.9c13-3.7,24.5,4.9,24.5,18.4c0,84.2,0.1,168.5,0,252.7c0,21.6-14.8,40.4-35.6,46.2
	c-2.4,0.7-4.8,1.2-7.2,1.8C249.8,384,206.3,384,162.8,384z M142.6,146c0,1.7,0,3,0,4.2c0,60.8,0,121.7,0,182.5
	c0,17.9,10.8,28.8,28.7,28.8c38,0,76,0,114,0c17.5,0,28.4-10.8,28.4-28.2c0-61.1,0-122.2,0-183.3c0-1.3-0.1-2.6-0.2-4.1
	C256.4,146,199.7,146,142.6,146z M214,35.1c-3.1-3-6.4-6.1-9.6-9.2c-4.8-4.7-5.3-4.7-9.9-0.1c-40.3,40.3-80.6,80.6-120.9,120.8
	c-0.6,0.6-1.3,1.2-1.8,1.9c-1.8,2-1.8,4,0.1,6c3.8,3.9,7.7,7.8,11.3,11.5C126.8,122.4,170.1,79.1,214,35.1z M313.4,123.3
	c0-11.7,0-23.4,0-35.4c-20.6,5.8-40.8,11.5-61.1,17.2c-0.7,0.2-1.6,1.3-1.6,2c-0.1,5.2-0.1,10.4-0.1,16.1
	C271.7,123.3,292.4,123.3,313.4,123.3z M144.1,43.9c-3.4-3.3-6.8-6.7-10.3-9.9c-3.7-3.4-7.5-3.4-11.3,0.1c-2.1,2-4.1,4-6.1,6.1
	c-11.3,11.3-22.6,22.6-33.9,33.9c-3.6,3.6-4.4,7.5-1.6,10.6c3.5,4,7.5,7.5,11.2,11.1C109.4,78.6,126.5,61.5,144.1,43.9z M267,319.8
	c0,3.7,0.9,7,3.7,9.4c3.6,3.2,7.8,4,12.2,1.9c4.8-2.3,6.7-6.4,6.7-11.6c0-43.9,0-87.7,0-131.6c0-7.8-4.7-13.1-11.4-13
	c-6.6,0.1-11.1,5.2-11.1,12.9c0,21.9,0,43.7,0,65.6C267,275.6,267,297.7,267,319.8z M239.4,187.1c0-5.8-2.9-10-7.8-11.5
	c-7.5-2.4-14.6,3-14.7,11.3c-0.1,12.5,0,25,0,37.5c0,31.6-0.1,63.2,0.1,94.8c0,3,1.2,6.4,2.8,9c2.6,4,7.6,5,12.1,3.4
	c4.7-1.7,7.4-5.6,7.5-11c0-22.4,0-44.7,0-67.1C239.4,231.4,239.4,209.3,239.4,187.1z M189.3,211.9c0-8.5,0.1-17-0.1-25.5
	c-0.1-6.1-3.8-10.3-9.5-11.2c-7.4-1.2-12.9,4.4-12.9,13.2c0,43.5,0,86.9,0,130.4c0,1.6,0.1,3.3,0.4,4.8c1.1,4.9,5.5,8.5,10.5,8.6
	c5,0.2,9.7-3.1,11-7.9c0.5-1.9,0.5-4,0.5-5.9c0-21.5,0-43,0-64.5C189.3,239.9,189.3,225.9,189.3,211.9z"></path>
  </symbol>
  <symbol version="1.1" id="icon_upload" xmlns="http://www.w3.org/2000/svg" xmlns:xlink="http://www.w3.org/1999/xlink" x="0px" y="0px" enable-background="new 0 0 330 306.2" xml:space="preserve" viewBox="0 0 330 306.2">
    <path d="M165,306.2c-34.5,0-69,0-103.5,0c-30.4,0-54.8-20.3-60.4-50.1c-0.9-4.6-0.9-9.4-1-14.2c-0.1-12.2-0.1-24.5,0-36.8
	c0.1-6.4,4.3-11.4,10-12.2c5.9-0.9,11.4,2.3,13.3,8c0.6,1.7,0.7,3.7,0.7,5.5c0.1,12.4,0,24.8,0,37.1c0,23.1,15.5,38.6,38.5,38.6
	c68.2,0,136.5,0,204.7,0c23,0,38.5-15.5,38.5-38.6c0-12.5,0-25,0-37.5c0-8.1,4.8-13.3,12-13.2c7,0.1,12,5.4,11.9,13.1
	c-0.1,15.5,0.6,31.1-0.7,46.5c-2.4,29.9-28.4,53.5-58.5,53.7C235.5,306.3,200.2,306.1,165,306.2C165,306.1,165,306.1,165,306.2z
	 M153,41.9c0,1.4,0,2.7,0,4.1c0,56.6,0,113.3,0,169.9c0,1.2,0,2.5,0,3.7c0.3,6,5,10.9,10.9,11.4c6,0.5,11.7-3.7,12.8-9.7
	c0.3-1.6,0.2-3.2,0.2-4.9c0-56.9,0-113.8,0-170.6c0-1.3,0-2.6,0-4.7c1.6,1.5,2.6,2.4,3.5,3.3C195,59,209.5,73.5,224,88
	c5.6,5.6,13,6,18,1c4.9-4.9,4.6-12.4-1-18C218.9,49,196.8,26.9,174.7,4.8c-6.4-6.4-12.9-6.4-19.3,0c-21.9,21.8-43.7,43.6-65.6,65.4
	c-5.6,5.6-5.9,12.9-0.8,17.9c5,4.9,12.1,4.5,17.6-1c14.2-14.2,28.5-28.4,42.7-42.7c0.9-1,1.6-2.2,2.4-3.3
	C152.2,41.4,152.6,41.7,153,41.9z"></path>
  </symbol>
  <symbol version="1.1" id="icon_user-circle" xmlns="http://www.w3.org/2000/svg" xmlns:xlink="http://www.w3.org/1999/xlink" x="0px" y="0px" enable-background="new 0 0 384 384" xml:space="preserve" viewBox="0 0 384 384">
    <path d="M203.2,0c7.4,1,14.9,1.7,22.2,3c30.7,5.2,58.4,17.6,83.2,36.5c4.2,3.2,5.2,7.4,2.6,11c-2.6,3.7-7.3,4.2-11.5,0.9
	c-19.6-14.9-41.3-25.6-65.4-31.4C139.9-2.8,44.3,53.6,20.9,147.9c-16.6,67,1.1,125.4,50.7,173.8c0.8,0.8,1.7,1.4,2.2,1.9
	c19.8-61.7,60.5-96.1,126.7-93.5c51.8,2,96.6,40.3,108.9,94c1-0.8,1.9-1.4,2.6-2.1c33.6-31.5,52.6-70.2,56.3-116.2
	c3-37.1-5.2-71.7-23.9-103.8c-0.4-0.6-0.7-1.3-1.1-2c-2-4-1-8,2.5-10.2c3.6-2.2,8.2-1.3,10.3,2.7c5.2,10.1,10.6,20.1,14.9,30.6
	c7.1,17.2,10.9,35.3,12.2,53.8c0.1,1,0.4,1.9,0.6,2.9c0,8,0,16,0,24c-0.3,2.5-0.6,4.9-0.9,7.4c-4.4,40.4-19.6,76.2-46.4,106.8
	c-29.8,34-67,55-111.6,62.9c-7,1.2-14,2-21.1,2.9c-8,0-16,0-24,0c-1-0.2-1.9-0.5-2.9-0.6c-32.6-2.5-62.8-12.5-90.1-30.7
	C41.2,322,13,279.5,2.9,225.1C1.6,218.1,1,211,0,204c0-8,0-16,0-24c1.2-8.5,2.1-17.1,3.7-25.5C18.1,77.9,81.7,15.6,158.5,2.9
	c7.1-1.2,14.3-2,21.5-2.9C187.8,0,195.5,0,203.2,0z M191.3,369c35.6-0.3,67.9-9.5,97.3-28.7c7.9-5.2,7.9-5.2,5.7-14.5
	c-14.6-62-78.8-97-138.5-74.9c-37.1,13.8-59.1,41.1-67.2,79.8c-0.6,3-0.1,4.9,2.7,6.8C121.6,358.5,155.2,368.7,191.3,369z
	 M192.2,79.5c37.2,0.1,67.4,30.4,67.3,67.7c-0.1,37.2-30.4,67.4-67.7,67.3c-37.2-0.1-67.4-30.4-67.3-67.7
	C124.6,109.7,154.9,79.4,192.2,79.5z M191.9,199.5c28.9,0,52.5-23.5,52.5-52.4c0.1-28.9-23.4-52.6-52.3-52.6
	c-29.1-0.1-52.7,23.5-52.7,52.5C139.5,175.9,163.1,199.5,191.9,199.5z M330.1,61.5c-4.1-0.1-7.6,3.4-7.6,7.5c0,4,3.3,7.4,7.3,7.4
	c4.1,0.1,7.6-3.4,7.6-7.5C337.4,65,334.1,61.6,330.1,61.5z"></path>
  </symbol>
  <symbol xmlns="http://www.w3.org/2000/svg" id="icon_vi" viewBox="0 0 512 512">
    <defs>
      <clipPath id="a">
        <path fill-opacity=".7" d="M177.2 0h708.6v708.7H177.2z"></path>
      </clipPath>
    </defs>
    <g fill-rule="evenodd" clip-path="url(#a)" transform="translate(-128) scale(.72249)">
      <path fill="#da251d" d="M0 0h1063v708.7H0z"></path>
      <path fill="#ff0" d="m661 527.5-124-92.6-123.3 93.5 45.9-152-123.2-93.8 152.4-1.3L536 129.8 584.3 281l152.4.2-122.5 94.7L661 527.5z"></path>
    </g>
  </symbol>
  <symbol id="icon_warning" xmlns="http://www.w3.org/2000/svg" viewBox="0 0 388.3 354.8">
    <title>159469</title>
    <path d="M213.7,269.6A19.7,19.7,0,0,1,194.1,289h0a19.9,19.9,0,0,1,0-39.7h.1C205.2,249.3,213.7,258.2,213.7,269.6ZM202.4,110.5a19.6,19.6,0,0,0-8.3-1.9c-11.4-.1-21.2,10.3-20.3,24,1.4,20.3,2.5,40.6,3.8,60.9.6,10,.9,20,2.1,29.8.8,7.5,7.1,12.3,14.4,12.3h.1a15,15,0,0,0,14.5-12.1c.8-3.7.3-7.3.5-11,1.6-26.6,3.1-53.2,4.7-79.8C214.5,123,211.8,114.9,202.4,110.5ZM367.8,334.3c-13.4,13.6-30,20.4-49,20.4H69.5c-19.1,0-35.7-6.8-49-20.4C-2.3,311.2-6.5,278.4,9.9,250Q71.6,142.6,133.7,35.5C145.1,15.7,162,3.2,184.8.6a72.4,72.4,0,0,1,18.6,0c22.9,2.6,39.7,15.1,51.2,34.9Q316.5,142.6,378.4,250C394.7,278.4,390.5,311.2,367.8,334.3Zm-16.4-68.4Q289.6,158.4,227.4,51a37.6,37.6,0,0,0-59-9.8,40.3,40.3,0,0,0-7.6,9.8q-62,107.4-124,214.9c-12.5,21.8-2.1,48.3,21.6,55.8a45.8,45.8,0,0,0,13.8,1.7H316a46.5,46.5,0,0,0,13.9-1.7C353.5,314.2,364,287.7,351.4,265.9Z" transform="translate(0 0)"></path>
  </symbol>
  <symbol version="1.1" id="icon_arrow" xmlns="http://www.w3.org/2000/svg" xmlns:xlink="http://www.w3.org/1999/xlink" x="0px" y="0px" enable-background="new 0 0 384 384" xml:space="preserve" viewBox="0 0 384 384">
    <path d="M251,192.2c-4.7-4.5-8.7-8.4-12.7-12.4C196,137.5,153.7,95.3,111.6,53c-2.1-2.2-3.9-5.3-4.5-8.3c-1-4.8,1.6-9,5.8-11.1
	c4.5-2.2,8.7-1.7,12.6,1.3c1,0.8,1.8,1.7,2.7,2.6c47.8,47.8,95.6,95.6,143.5,143.4c7.3,7.3,7.3,14.8,0,22.2
	C223.8,251,175.8,298.9,128,346.8c-3.6,3.6-7.4,6-12.6,4.5c-7.9-2.2-11.1-11.4-6.1-17.9c0.9-1.2,2-2.2,3.1-3.3
	c45.1-45.1,90.1-90.1,135.2-135.2C248.5,194.1,249.5,193.4,251,192.2z"></path>
  </symbol>
  <symbol version="1.1" id="icon_calendar" xmlns="http://www.w3.org/2000/svg" xmlns:xlink="http://www.w3.org/1999/xlink" x="0px" y="0px" enable-background="new 0 0 384 384" xml:space="preserve" viewBox="0 0 384 384">
    <path d="M0,317.2C0,243.5,0,169.8,0,96c0.2-0.8,0.6-1.6,0.7-2.4C5.1,59.6,34,32.1,68.1,30c6.7-0.4,13.4-0.1,20.4-0.1
	c0-4.2,0.2-7.6,0-10.9c-0.7-9.4,3-15.9,12.1-19c2,0,4,0,6,0c9.2,3.3,12.8,10,12,19.5c-0.3,3.2,0,6.4,0,9.8c49.2,0,97.9,0,147.1,0
	c0-3.4,0.2-6.6,0-9.8c-0.8-9.5,2.8-16.2,12-19.5c2,0,4,0,6,0c9,3.1,12.8,9.6,12.1,19c-0.3,3.4,0,6.9,0,10.5c4.7,0,8.8,0,12.9,0
	c35.3,0.5,64,22,73,54.9c1,3.8,1.7,7.7,2.6,11.6c0,73.8,0,147.5,0,221.2c-0.2,0.7-0.6,1.4-0.7,2.1c-4.1,30.8-26.4,55.4-56.7,62.6
	c-3.4,0.8-6.8,1.4-10.2,2.1c-83,0-166,0-249,0c-0.7-0.2-1.4-0.6-2.1-0.6c-31.5-4-56.5-26.5-63.6-57.4C1.1,323.1,0.6,320.2,0,317.2z
	 M30,148.1c0,1.7,0,2.9,0,4.2c0,52.1,0,104.2,0,156.3c0,25.9,19.2,45.3,45.2,45.3c77.9,0.1,155.7,0.1,233.6,0
	c26,0,45.2-19.4,45.2-45.4c0-52.1,0-104.2,0-156.3c0-1.3,0-2.6,0-4.1C245.8,148.1,138.1,148.1,30,148.1z M30.3,117.7
	c108,0,215.7,0,323.5,0c5-46.8-28.1-62.5-58.2-57.5c0,9.5,0.1,19,0,28.4c-0.1,8.2-6,14.5-13.8,15c-8.9,0.6-16-5.9-16.1-14.9
	c-0.1-9.6,0-19.2,0-29c-49.1,0-97.9,0-147.1,0c0,1.6,0,2.9,0,4.3c0,8.2,0.1,16.5,0,24.7c-0.1,8.6-6.7,15-15,14.9
	c-8.4,0-14.8-6.4-14.9-15.1c-0.1-4.4,0-8.7,0-13.1c0-5.2,0-10.4,0-15.6C52.9,55.4,25.6,75.2,30.3,117.7z M88.6,280.5
	c-8.3,0.2-14.8,6.6-14.9,14.7c-0.2,8.1,6.4,15.1,14.8,15.2c10,0.2,20,0.2,30,0c8.3-0.2,14.7-6.8,14.7-14.9c0-8.2-6.5-14.8-15-15
	c-4.9-0.1-9.7,0-14.6,0C98.6,280.5,93.6,280.4,88.6,280.5z M265.7,280.5c-8.3,0.2-14.7,6.6-14.9,14.8c-0.1,8.2,6.4,15,14.9,15.2
	c9.9,0.2,19.7,0.1,29.6,0c8.5-0.1,15.1-6.8,15.1-15c0-8.2-6.6-14.8-15.1-15c-4.9-0.1-9.7,0-14.6,0
	C275.7,280.5,270.7,280.4,265.7,280.5z M295.4,222c8.5-0.2,15-6.9,15-15.1c-0.1-8.2-6.7-14.8-15.2-14.8c-9.7-0.1-19.5-0.1-29.2,0
	c-8.5,0.1-15.1,6.6-15.1,14.9c-0.1,8.2,6.5,14.8,15,15c4.9,0.1,9.7,0,14.6,0C285.4,222,290.4,222.1,295.4,222z M118.2,222
	c8.5-0.2,15-6.9,15-15.1c-0.1-8.3-6.6-14.8-15.1-14.9c-9.7-0.1-19.5-0.1-29.2,0c-8.5,0.1-15.1,6.7-15.2,14.9
	c-0.1,8.2,6.5,14.9,15,15.1c4.9,0.1,9.7,0,14.6,0C108.3,222,113.2,222.1,118.2,222z M206.7,222c8.5-0.2,15-6.8,14.9-15.1
	c-0.1-8.3-6.6-14.8-15.1-14.9c-9.7-0.1-19.5-0.1-29.2,0c-8.5,0.1-15.1,6.6-15.2,14.9c-0.1,8.2,6.5,14.9,15,15.1
	c4.9,0.1,9.7,0,14.6,0C196.7,222,201.7,222.1,206.7,222z M176.9,280.5c-8.3,0.2-14.7,6.8-14.8,14.9c0,8,6.4,14.9,14.6,15
	c10.1,0.2,20.2,0.2,30.3,0c8.3-0.2,14.6-7,14.5-15.1c-0.1-8.2-6.5-14.6-14.8-14.8c-4.9-0.1-9.7,0-14.6,0
	C187.1,280.5,182,280.4,176.9,280.5z"></path>
  </symbol>
  <symbol version="1.1" id="icon_check" xmlns="http://www.w3.org/2000/svg" xmlns:xlink="http://www.w3.org/1999/xlink" x="0px" y="0px" enable-background="new 0 0 384 384" xml:space="preserve" viewBox="0 0 384 384">
    <path d="M59.9,177.6c4.6-0.2,8.4,2.3,11.9,5.5c23.9,21.6,47.9,43.2,72,64.6c2.9,2.5,6.6,4.7,10.3,5.5c5.9,1.4,10.9-1.3,15-5.8
	c25.2-28.1,50.5-56.1,75.8-84.1c22.5-25,45-49.9,67.6-74.9c5.3-5.8,12-7.4,18.6-4.6c6.3,2.7,10.6,9,9.5,15.8
	c-0.6,3.7-2.4,7.7-4.9,10.5c-28.9,32.5-58.1,64.7-87.2,97c-26.1,29-52.2,57.9-78.3,86.9c-8.3,9.2-17.4,9.6-26.3,1.2
	c-31.5-29.6-62.9-59.3-94.4-88.9c-4.6-4.3-7-9.3-5.8-15.7C45,183,51.6,177.6,59.9,177.6z"></path>
  </symbol>
  <symbol version="1.1" id="icon_cog" xmlns="http://www.w3.org/2000/svg" xmlns:xlink="http://www.w3.org/1999/xlink" x="0px" y="0px" enable-background="new 0 0 512 512" xml:space="preserve" viewBox="0 0 512 512">
    <path d="M212,0c29.3,0,58.7,0,88,0c6.1,2.5,7.9,7.4,7.8,13.6c-0.2,9.3,0,18.6-0.1,28c0,2.6,0.8,3.8,3.4,4.5
	c5.9,1.6,11.9,3.1,17.6,5.5c13.5,5.6,26.7,11.7,40.8,17.9c6.7-6.7,14.1-14.2,21.5-21.5c7.2-7.2,11.9-7.2,19.1,0c18,18,36,36,54,54
	c7.2,7.2,7.2,11.9,0,19.1c-7.4,7.4-14.8,14.8-22.4,22.3c11,18.5,19.3,37.9,24.7,58.4c0.3,1.1,2.7,2.3,4.1,2.3
	c9.3,0.2,18.6,0.2,28,0.1c6.2-0.1,11.1,1.7,13.6,7.8c0,29.3,0,58.7,0,88c-2.5,6.1-7.4,7.9-13.6,7.8c-9.3-0.2-18.6,0-28-0.1
	c-2.6,0-3.8,0.8-4.5,3.4c-1.6,5.9-3.1,11.9-5.5,17.6c-5.6,13.5-11.7,26.7-17.9,40.7c6.7,6.7,14.2,14.1,21.5,21.5
	c7.2,7.2,7.2,11.9,0,19.1c-18,18-36,36-54,54c-7.2,7.2-11.9,7.2-19.1,0c-7.4-7.4-14.8-14.8-22.3-22.4c-18.6,11-37.9,19.3-58.4,24.7
	c-1.1,0.3-2.3,2.7-2.3,4.1c-0.2,9.3-0.2,18.6-0.1,28c0.1,6.2-1.8,11.1-7.8,13.6c-29.3,0-58.7,0-88,0c-6.1-2.5-7.9-7.4-7.8-13.6
	c0.2-9.3,0-18.6,0.1-28c0-2.6-0.7-3.9-3.4-4.5c-5.1-1.3-10.4-2.6-15.2-4.6c-14.2-5.9-28.3-12.2-43.2-18.7
	c-6.6,6.6-14,14.1-21.4,21.4c-7.2,7.2-11.9,7.2-19.1,0c-18-18-36-36-54-54c-7.2-7.2-7.2-11.9,0-19.1c7.4-7.4,14.8-14.8,22.4-22.3
	c-11-18.5-19.3-37.9-24.7-58.4c-0.3-1.1-2.7-2.3-4.1-2.3c-9.3-0.2-18.6-0.2-28-0.1C7.4,307.9,2.5,306.1,0,300c0-29.3,0-58.7,0-88
	c2.5-6.1,7.4-7.9,13.6-7.8c9.3,0.2,18.6,0,28,0.1c2.6,0,3.8-0.8,4.5-3.4c1.6-5.9,3.1-11.9,5.5-17.6c5.6-13.5,11.7-26.7,17.9-40.7
	c-6.7-6.7-14.2-14.1-21.6-21.5c-7.2-7.2-7.2-11.9,0-19.1c18-18,36-36,54-54c7.2-7.2,11.9-7.1,19.1,0c7.4,7.4,14.8,14.8,22.3,22.4
	c18.6-11,37.9-19.3,58.4-24.7c1.1-0.3,2.3-2.7,2.3-4.1c0.2-9.3,0.2-18.6,0.1-28C204.1,7.4,205.9,2.5,212,0z M491.9,224.2
	c-10.3,0-20.1,0-29.9,0c-8.6,0-11.5-1.9-13.4-10.2c-5.3-23.1-14.3-44.6-26.9-64.7c-4.3-6.9-3.7-10.5,2.1-16.4
	c7-7.1,14.1-14.1,20.9-20.9c-15.1-15-29.9-29.8-45.2-45.1c-3.3,3.5-6.8,7.3-10.4,11c-3.6,3.7-7.2,7.4-11,11c-5,4.8-8.8,5.3-14.8,1.9
	c-6.1-3.4-12-7.2-18.2-10.4c-14.9-7.7-30.5-13-46.8-16.8c-8.7-2-10.6-4.8-10.7-13.6c0-5.5,0-11,0-16.5c0-4.4,0-8.8,0-13.2
	c-21.6,0-42.3,0-63.5,0c0,9.9,0,19.6,0,29.2c0,9.3-1.9,12-10.7,14c-22.8,5.2-44,14.1-63.8,26.4c-7.4,4.6-10.9,4-17.1-2.2
	c-7-6.9-13.9-13.9-20.4-20.5c-15.1,15-29.9,29.8-45,44.7c7,7,14.3,14.1,21.4,21.3c5.3,5.4,5.7,9.1,2,15.6c-3.5,6.1-7.2,12-10.4,18.2
	c-7.6,14.7-12.9,30.3-16.6,46.4c-2,8.7-4.8,10.6-13.6,10.7c-5.5,0-11,0-16.5,0c-4.4,0-8.8,0-13.2,0c0,21.6,0,42.3,0,63.5
	c9.9,0,19.6,0,29.2,0c9.3,0,12,1.9,14,10.7c5.2,22.8,14.1,44,26.4,63.8c4.6,7.4,4,10.9-2.2,17.1c-6.9,7-13.9,13.9-20.5,20.4
	c15,15.1,29.8,29.9,44.8,45c7-7,14.1-14.3,21.3-21.4c5.4-5.3,9.1-5.7,15.6-2c6.1,3.5,12,7.2,18.2,10.4c14.7,7.6,30.3,12.9,46.4,16.6
	c8.7,2,10.6,4.8,10.7,13.6c0,5.7,0,11.3,0,17c0,4.2,0,8.5,0,12.6c21.6,0,42.3,0,63.5,0c0-9.9,0-19.6,0-29.2c0-9.3,1.9-12,10.7-14
	c22.8-5.2,44-14.1,63.8-26.4c7.4-4.6,10.9-4,17.1,2.2c7,6.9,13.9,13.9,20.5,20.6c15.1-15.1,29.8-29.9,44.9-45
	c-7-7-14.4-14.2-21.7-21.5c-4.9-5-5.3-8.7-1.9-14.8c3.5-6.2,7.3-12.3,10.6-18.7c7.9-15.1,13.1-31.3,17-47.8
	c1.7-6.9,4.7-9.1,11.6-9.2c5.8-0.1,11.7,0,17.5,0c4.6,0,9.2,0,13.8,0C491.9,266.3,491.9,245.6,491.9,224.2z M279.5,367.6
	c58.8-12.8,97.4-67.4,89.3-126.8c-1.4-10.1-4.9-20-8.1-29.7c-1.8-5.6-7.3-7.8-12.5-6.1c-5.1,1.7-7.6,6.7-6.2,12.5
	c0.6,2.2,1.5,4.4,2.3,6.6c18.8,49.8-10.4,107.7-61.7,122.2c-22,6.2-43.4,4.9-64.5-4c-6.8-2.8-12.4-0.7-14.6,5
	c-2.2,5.6,0.6,10.8,7.4,13.6c14.3,6,29.1,9.2,44.7,9.8C263.7,369.6,271.7,369.3,279.5,367.6z M149.3,296.4c2.1,5.8,7.4,8.4,12.7,6.6
	c5.1-1.7,7.6-6.7,6.2-12.5c-0.5-1.9-1.1-3.8-1.8-5.7c-15.4-45.9,9-98.2,54.2-116c23-9.1,46-9.1,69.2-0.7c7,2.5,12.4,0.4,14.6-5.3
	c2.1-5.6-0.9-10.9-7.7-13.4c-20.8-7.9-42.1-9.6-63.8-5.2c-52.6,10.7-90.8,57.7-90.9,113.7C141.8,269.8,144.5,283.3,149.3,296.4z
	 M338.5,181.4c0-5.3-4.5-9.9-9.8-9.9c-5.4,0-9.8,4.4-9.8,9.8c0,5.5,4.3,9.8,9.8,9.8C334,191.2,338.5,186.8,338.5,181.4z M190.1,328
	c0.3-5.5-3.9-10-9.3-10.3c-5.4-0.2-10,3.8-10.4,9.3c-0.4,5.2,4,10,9.4,10.3C185.3,337.5,189.8,333.4,190.1,328z"></path>
  </symbol>
  <symbol version="1.1" id="icon_day-night" xmlns="http://www.w3.org/2000/svg" xmlns:xlink="http://www.w3.org/1999/xlink" x="0px" y="0px" enable-background="new 0 0 384 384" xml:space="preserve" viewBox="0 0 384 384">
    <path d="M103.5,0c-0.1,10.7-0.3,21.5-0.3,32.2c0,0.8,1,1.9,1.8,2.3c6.6,2.6,13.2,5.1,20.3,7.8c7.3-7.3,15.2-15.3,22.8-22.9
	c5.6,5.5,10.8,10.7,16.2,16c-7.7,7.6-15.6,15.5-22.9,22.8c2.8,7.3,5.2,14,8,20.5c0.4,0.9,2.1,1.8,3.3,1.8c8.9,0.2,17.7,0.1,26.6,0.1
	c1.4,0,2.7,0,4.3,0c0,7.6,0,14.9,0,22.6c-11.4,0-22.6,0-33,0c-3.2,7.6-6.1,14.6-9.2,22.1c7.5,7.4,15.4,15.3,23.2,23
	c-5.6,5.5-10.7,10.7-16,15.9c-7.5-7.6-15.3-15.5-22.6-22.8c-7.6,2.9-14.4,5.3-21.2,8.1c-0.8,0.3-1.5,2.1-1.5,3.2
	c-0.1,8.9-0.1,17.7-0.1,26.6c0,1.4,0,2.7,0,4.3c-7.6,0-14.7,0-22.3,0c-0.1-1.3-0.2-2.6-0.2-4c0-8.9-0.1-17.7,0-26.6
	c0-2.3-0.6-3.3-3-4.1c-6.3-2.1-12.5-4.8-19.4-7.5c-7.3,7.4-15.2,15.4-22.9,23.1c-5.4-5.4-10.5-10.5-15.5-15.5
	c7.7-7.6,15.6-15.5,23.1-22.8c-3.4-8.2-6.4-15.2-9.8-23.3c-10.4,0-21.8,0-33.1,0c0-7.5,0-15,0-22.5c10.7,0.1,21.4,0.2,32.2,0.2
	c0.8,0,2-0.7,2.2-1.3c2.7-6.8,5.2-13.6,8.2-21.6c-7.2-7.1-15.2-14.9-22.8-22.2c5.3-5.3,10.4-10.4,16.1-16
	c7.6,7.6,15.5,15.5,22.8,22.9c7-2.6,13.6-5.1,20.1-7.7c0.8-0.3,1.7-1.5,1.7-2.3c0-10.7-0.1-21.4-0.3-32.1C88,0,95.8,0,103.5,0z
	 M92.1,55.5c-19.9-0.1-36.3,16.1-36.5,36c-0.2,20,16.3,36.6,36.3,36.6c19.8,0,36.3-16.4,36.3-36.2C128.2,72,111.9,55.6,92.1,55.5z
	 M285,384c-4.6-0.9-9.3-1.6-13.9-2.7c-37.6-9.3-62.6-38.7-67.4-77.1c-5.4-43.2,24.5-85.2,65.1-96c6.6-1.7,13.3-3,20.2-4.6
	c-11.7,33-5.1,61.4,20.9,83.8c21.9,18.9,47.4,21.2,74.1,10.4c0,0.5,0,1,0,1.5c-1,4-2.1,7.9-3,11.9c-7.8,32.7-26,56.6-58.5,68
	c-6.8,2.4-14,3.3-21,4.9C296,384,290.5,384,285,384z M262.2,235.3c-21.6,6.9-39.3,39.3-36.3,66.2c3.6,31.9,29.4,57.4,60.9,59.9
	c27.6,2.3,59.1-15.3,65.2-36.3C303.1,325,262.2,284.2,262.2,235.3z M55.2,314.4c4.9,4.9,10,10.1,14.6,14.6
	c86.4-86.4,173.1-173.1,259.7-259.7c-4.7-4.7-9.8-9.9-14.6-14.6C228.2,141.4,141.4,228.2,55.2,314.4z"></path>
  </symbol>
  <symbol version="1.1" id="icon_disable" xmlns="http://www.w3.org/2000/svg" xmlns:xlink="http://www.w3.org/1999/xlink" x="0px" y="0px" enable-background="new 0 0 134.1 134.1" xml:space="preserve" viewBox="0 0 134.1 134.1">
    <path d="M63.1,0.1c2.6,0,5.2,0,7.8,0c0.3,0.1,0.7,0.2,1,0.2c10.5,0.7,20.3,3.7,29.2,9.2c17.3,10.6,28,25.9,31.7,46
	c0.5,2.5,0.7,5.1,1,7.6c0,2.6,0,5.2,0,7.8c-0.1,0.5-0.2,0.9-0.2,1.4c-0.4,2.9-0.7,5.8-1.3,8.6c-3.5,16.1-11.7,29.2-24.8,39.1
	C91.3,132.4,73,136.5,53,132.4c-16-3.3-29-11.7-39-24.7C3.3,93.7-1.2,77.8,0.5,60.3c1.4-14.2,6.9-26.7,16.3-37.4
	c10.4-11.7,23.3-19,38.7-21.8C58,0.7,60.6,0.5,63.1,0.1z M24.2,32.9C7.8,52.4,6.3,86.5,30.9,108.3c22.9,20.2,53.9,15.7,70.2,1.6
	C75.4,84.2,49.8,58.5,24.2,32.9z M109.9,101.2c17.4-21.3,16.9-55.3-7.5-76.1C79.9,6,49.7,9.8,32.9,24.2
	C58.5,49.9,84.2,75.5,109.9,101.2z"></path>
  </symbol>
</svg>
